<svg width="38" height="36" viewBox="0 0 38 36" fill="none" xmlns="http://www.w3.org/2000/svg">
<path fill-rule="evenodd" clip-rule="evenodd" d="M8.96094 17C8.96094 16.4477 9.40865 16 9.96094 16H22.9609C23.5132 16 23.9609 16.4477 23.9609 17C23.9609 17.5523 23.5132 18 22.9609 18H9.96094C9.40865 18 8.96094 17.5523 8.96094 17Z" fill="white"/>
<path fill-rule="evenodd" clip-rule="evenodd" d="M8.96094 21C8.96094 20.4477 9.40865 20 9.96094 20H22.9609C23.5132 20 23.9609 20.4477 23.9609 21C23.9609 21.5523 23.5132 22 22.9609 22H9.96094C9.40865 22 8.96094 21.5523 8.96094 21Z" fill="white"/>
<path fill-rule="evenodd" clip-rule="evenodd" d="M4.04672 9.58579C4.4218 9.21071 4.9305 9 5.46094 9H27.4609C27.9914 9 28.5001 9.21071 28.8751 9.58579C29.2502 9.96086 29.4609 10.4696 29.4609 11V30C29.4609 30.3466 29.2815 30.6684 28.9867 30.8506C28.6918 31.0329 28.3237 31.0494 28.0137 30.8944L24.4609 29.118L20.9081 30.8944C20.6266 31.0352 20.2953 31.0352 20.0137 30.8944L16.4609 29.118L12.9081 30.8944C12.6266 31.0352 12.2952 31.0352 12.0137 30.8944L8.46094 29.118L4.90815 30.8944C4.59816 31.0494 4.23002 31.0329 3.93521 30.8506C3.64039 30.6684 3.46094 30.3466 3.46094 30V11C3.46094 10.4696 3.67165 9.96086 4.04672 9.58579ZM27.4609 11L5.46094 11L5.46094 28.382L8.01372 27.1056C8.29525 26.9648 8.62662 26.9648 8.90815 27.1056L12.4609 28.882L16.0137 27.1056C16.2953 26.9648 16.6266 26.9648 16.9081 27.1056L20.4609 28.882L24.0137 27.1056C24.2952 26.9648 24.6266 26.9648 24.9081 27.1056L27.4609 28.382V11Z" fill="white"/>
<rect x="18" width="20" height="20" rx="10" fill="#750310"/>
<path d="M24.3556 9.764C24.3556 8.14933 24.6263 6.88933 25.1676 5.984C25.7183 5.06933 26.661 4.612 27.9956 4.612C29.3303 4.612 30.2683 5.06933 30.8096 5.984C31.3603 6.88933 31.6356 8.14933 31.6356 9.764C31.6356 11.3973 31.3603 12.676 30.8096 13.6C30.2683 14.5147 29.3303 14.972 27.9956 14.972C26.661 14.972 25.7183 14.5147 25.1676 13.6C24.6263 12.676 24.3556 11.3973 24.3556 9.764ZM30.0676 9.764C30.0676 9.008 30.0163 8.36867 29.9136 7.846C29.8203 7.32333 29.6243 6.89867 29.3256 6.572C29.027 6.236 28.5836 6.068 27.9956 6.068C27.4076 6.068 26.9643 6.236 26.6656 6.572C26.367 6.89867 26.1663 7.32333 26.0636 7.846C25.9703 8.36867 25.9236 9.008 25.9236 9.764C25.9236 10.548 25.9703 11.206 26.0636 11.738C26.157 12.27 26.353 12.6993 26.6516 13.026C26.9596 13.3527 27.4076 13.516 27.9956 13.516C28.5836 13.516 29.027 13.3527 29.3256 13.026C29.6336 12.6993 29.8343 12.27 29.9276 11.738C30.021 11.206 30.0676 10.548 30.0676 9.764Z" fill="white"/>
</svg>